<svg width="24" height="24" viewBox="0 0 24 24" fill="none" xmlns="http://www.w3.org/2000/svg">
<path d="M11.9999 6.5885C12.4217 6.5885 12.708 6.29469 12.708 5.84269V2.64096C12.708 2.18895 12.4217 1.89514 11.9999 1.89514C11.578 1.89514 11.2917 2.18895 11.2917 2.64096V5.84269C11.2917 6.29469 11.578 6.5885 11.9999 6.5885ZM7.73591 20.6535C8.13518 20.6535 8.54199 20.4275 8.88853 20.096L11.804 17.3011C11.8793 17.2258 11.9396 17.1881 11.9999 17.1881C12.0601 17.1881 12.1129 17.2258 12.1957 17.3011L15.1112 20.096C15.4577 20.4275 15.8645 20.6535 16.2638 20.6535C16.859 20.6535 17.3034 20.1412 17.3034 19.5536C17.3034 19.2146 17.1754 18.8455 16.9946 18.3859L13.2278 8.82594C12.9265 8.0726 12.5423 7.70346 11.9999 7.70346C11.4499 7.70346 11.0732 8.06506 10.7644 8.82594L6.99763 18.3859C6.81682 18.8455 6.69629 19.2146 6.69629 19.5536C6.69629 20.1412 7.14076 20.6535 7.73591 20.6535ZM8.47419 18.5291C8.45159 18.5065 8.45159 18.4688 8.46666 18.4161L11.8869 9.7375C11.917 9.67723 11.9471 9.63203 11.9999 9.63203C12.0526 9.63203 12.0827 9.68476 12.1053 9.7375L15.5255 18.4161C15.5481 18.4688 15.5481 18.5065 15.518 18.5291C15.5029 18.5441 15.4653 18.5517 15.4276 18.514L12.6176 15.9677C12.3841 15.7492 12.2033 15.6287 11.9999 15.6287C11.7889 15.6287 11.6157 15.7492 11.3821 15.9677L8.57213 18.514C8.54953 18.5366 8.50432 18.5592 8.47419 18.5291Z" fill="#DE2424"/>
</svg>
