<svg width="16" height="17" viewBox="0 0 16 17" fill="none" xmlns="http://www.w3.org/2000/svg">
<path d="M1 8.5C1 10.3565 1.7375 12.137 3.05025 13.4497C4.36301 14.7625 6.14348 15.5 8 15.5C9.85652 15.5 11.637 14.7625 12.9497 13.4497C14.2625 12.137 15 10.3565 15 8.5C15 6.64348 14.2625 4.86301 12.9497 3.55025C11.637 2.2375 9.85652 1.5 8 1.5C6.14348 1.5 4.36301 2.2375 3.05025 3.55025C1.7375 4.86301 1 6.64348 1 8.5ZM16 8.5C16 10.6217 15.1571 12.6566 13.6569 14.1569C12.1566 15.6571 10.1217 16.5 8 16.5C5.87827 16.5 3.84344 15.6571 2.34315 14.1569C0.842855 12.6566 0 10.6217 0 8.5C0 6.37827 0.842855 4.34344 2.34315 2.84315C3.84344 1.34285 5.87827 0.5 8 0.5C10.1217 0.5 12.1566 1.34285 13.6569 2.84315C15.1571 4.34344 16 6.37827 16 8.5ZM8.146 5.492C6.934 5.492 6.219 6.412 6.219 7.994V9.054C6.219 10.625 6.922 11.516 8.146 11.516C9.125 11.516 9.787 10.93 9.875 10.098H11.17V10.191C11.07 11.639 9.816 12.658 8.14 12.658C6.049 12.658 4.871 11.322 4.871 9.055V7.982C4.871 5.721 6.072 4.344 8.141 4.344C9.822 4.344 11.076 5.398 11.17 6.916V7.004H9.875C9.787 6.125 9.107 5.492 8.146 5.492Z" fill="#F6F6F6"/>
</svg>
