<svg width="24" height="24" viewBox="0 0 24 24" fill="none" xmlns="http://www.w3.org/2000/svg">
<path d="M6.01074 19.2899H17.9814C19.6087 19.2899 20.46 18.4462 20.46 16.834V9.42107C20.46 8.11778 20.2038 7.70344 19.3375 7.05556L13.6949 2.72381C13.0696 2.2492 12.6101 1.97046 11.9923 1.97046C11.3821 1.97046 10.9226 2.2492 10.2973 2.72381L4.65472 7.05556C3.7959 7.70344 3.53223 8.11778 3.53223 9.42107V16.834C3.53223 18.4462 4.38351 19.2899 6.01074 19.2899ZM13.6196 11.8243C13.0771 11.2818 12.5498 11.0558 11.9848 11.0558C11.4198 11.0558 10.8924 11.2818 10.35 11.8243L9.92062 12.2386L5.6416 8.00478L11.1034 3.8237C11.4574 3.55249 11.6684 3.40935 11.9923 3.40935C12.3238 3.40935 12.5423 3.55249 12.8888 3.8237L18.3355 7.99724L14.049 12.2386L13.6196 11.8243ZM19.0512 9.26287V16.7738C19.0512 16.9018 19.0437 17.0224 19.0135 17.1278L14.9681 13.1501L19.0512 9.1122C19.0512 9.1574 19.0512 9.21014 19.0512 9.26287ZM4.94099 16.7738V9.26287C4.94099 9.21767 4.94099 9.17247 4.94099 9.1348L9.00153 13.1501L4.97112 17.1052C4.94852 17.0073 4.94099 16.8943 4.94099 16.7738ZM11.126 12.8488C11.4424 12.5324 11.7061 12.4043 11.9848 12.4043C12.2635 12.4043 12.5272 12.5324 12.8436 12.8488L17.9287 17.8661H6.04088L11.126 12.8488Z" fill="#DE2424"/>
</svg>
