<svg width="24" height="24" viewBox="0 0 24 24" fill="none" xmlns="http://www.w3.org/2000/svg">
<path d="M16.4375 3.22848C16.1814 3.48462 16.1814 3.91403 16.4375 4.17017L18.9687 6.70895C19.2324 6.96509 19.6618 6.96509 19.918 6.70895C20.1741 6.45281 20.1741 6.03094 19.918 5.76726L17.3792 3.22848C17.123 2.97234 16.6936 2.97234 16.4375 3.22848ZM15.0438 19.2221C16.3622 19.2221 17.2586 18.8454 18.0723 17.964C18.125 17.9037 18.1777 17.8359 18.2305 17.7756C18.6749 17.2784 18.8934 16.7586 18.8934 16.2765C18.8934 15.7115 18.5921 15.1992 17.9216 14.7396L15.6691 13.1727C14.9609 12.683 14.1473 12.6453 13.5145 13.2781L12.957 13.8356C12.7536 14.0315 12.5728 14.0466 12.3468 13.8884C11.94 13.6172 11.1716 12.9391 10.6443 12.4118C10.1094 11.8769 9.56696 11.2742 9.27316 10.8147C9.11495 10.5812 9.12249 10.4004 9.32589 10.2045L9.88337 9.64701C10.5162 9.01419 10.4785 8.19305 9.98131 7.4849L8.38421 5.20225C7.93973 4.55437 7.40485 4.25303 6.83984 4.2455C6.35017 4.23797 5.84542 4.45644 5.34821 4.89338C5.28795 4.94611 5.22768 4.99885 5.16741 5.05158C4.27093 5.87273 3.88672 6.75415 3.88672 8.12524C3.88672 10.3476 5.17494 12.9693 7.68359 15.4629C10.1772 17.9414 12.7687 19.2221 15.0438 19.2221ZM15.0438 17.964C13.1228 17.9941 10.7347 16.6305 8.63281 14.5513C6.53097 12.4721 5.12974 9.99355 5.15988 8.07251C5.16741 7.26643 5.45368 6.55828 6.02623 6.06107C6.0865 6.01587 6.1317 5.9782 6.18443 5.933C6.39537 5.7522 6.62891 5.65426 6.83231 5.65426C7.05831 5.65426 7.24665 5.74466 7.39732 5.97067L8.81362 8.08758C8.99442 8.34372 9.00195 8.63752 8.73828 8.89366L8.1356 9.4888C7.56306 10.0463 7.60826 10.7017 7.9774 11.214C8.38421 11.779 9.13756 12.6453 9.78543 13.2781C10.471 13.9562 11.4051 14.7924 11.9475 15.1841C12.4598 15.5457 13.1077 15.5985 13.6652 15.0259L14.2603 14.4232C14.5165 14.1596 14.8103 14.1671 15.0739 14.3404L17.1532 15.7265C17.3867 15.8772 17.4696 16.0655 17.4696 16.284C17.4696 16.4949 17.3717 16.7209 17.1908 16.9394C17.1456 16.9922 17.108 17.0374 17.0628 17.0976C16.558 17.6702 15.8499 17.9564 15.0438 17.964ZM15.6766 7.46983C16.091 7.86911 16.7464 7.86911 17.1607 7.4623C17.56 7.05549 17.56 6.39254 17.1607 5.98574C16.7464 5.57893 16.091 5.57893 15.6766 5.9782C15.2698 6.39254 15.2698 7.04796 15.6766 7.46983ZM12.9269 6.73908C12.6708 6.99522 12.6708 7.4171 12.9269 7.67324L15.4657 10.212C15.7218 10.4757 16.1437 10.4757 16.3998 10.212C16.6635 9.95588 16.6635 9.53401 16.3998 9.27787L13.861 6.73908C13.6049 6.48294 13.183 6.48294 12.9269 6.73908ZM12.166 10.9729C12.5804 11.3797 13.2433 11.3797 13.6501 10.9729C14.0645 10.5586 14.0645 9.89561 13.6501 9.49634C13.2433 9.082 12.5804 9.082 12.166 9.4888C11.7592 9.89561 11.7592 10.5586 12.166 10.9729Z" fill="#DE2424"/>
</svg>
